<svg xmlns="http://www.w3.org/2000/svg" xmlns:xlink="http://www.w3.org/1999/xlink" width="500" zoomAndPan="magnify" viewBox="0 0 375 74.999997" height="100" preserveAspectRatio="xMidYMid meet" version="1.0"><defs><g/></defs><g fill="#8b1837" fill-opacity="1"><g transform="translate(9.25489, 56.592147)"><g><path d="M 23.40625 0.453125 C 19.488281 0.453125 15.953125 -0.414062 12.796875 -2.15625 C 9.640625 -3.894531 7.164062 -6.285156 5.375 -9.328125 C 3.582031 -12.367188 2.6875 -15.789062 2.6875 -19.59375 C 2.6875 -23.40625 3.582031 -26.832031 5.375 -29.875 C 7.164062 -32.914062 9.644531 -35.300781 12.8125 -37.03125 C 15.988281 -38.769531 19.539062 -39.640625 23.46875 -39.640625 C 26.53125 -39.640625 29.328125 -39.125 31.859375 -38.09375 C 34.398438 -37.070312 36.566406 -35.554688 38.359375 -33.546875 L 34.71875 -30.015625 C 31.769531 -33.109375 28.09375 -34.65625 23.6875 -34.65625 C 20.769531 -34.65625 18.132812 -34.003906 15.78125 -32.703125 C 13.4375 -31.398438 11.597656 -29.597656 10.265625 -27.296875 C 8.941406 -25.003906 8.28125 -22.4375 8.28125 -19.59375 C 8.28125 -16.757812 8.941406 -14.191406 10.265625 -11.890625 C 11.597656 -9.597656 13.4375 -7.796875 15.78125 -6.484375 C 18.132812 -5.179688 20.769531 -4.53125 23.6875 -4.53125 C 28.050781 -4.53125 31.726562 -6.097656 34.71875 -9.234375 L 38.359375 -5.71875 C 36.566406 -3.695312 34.390625 -2.160156 31.828125 -1.109375 C 29.273438 -0.0664062 26.46875 0.453125 23.40625 0.453125 Z M 23.40625 0.453125 "/></g></g></g><g fill="#8b1837" fill-opacity="1"><g transform="translate(49.742587, 56.592147)"><g><path d="M 17.8125 0.34375 C 14.863281 0.34375 12.210938 -0.304688 9.859375 -1.609375 C 7.503906 -2.921875 5.664062 -4.722656 4.34375 -7.015625 C 3.019531 -9.316406 2.359375 -11.925781 2.359375 -14.84375 C 2.359375 -17.75 3.019531 -20.347656 4.34375 -22.640625 C 5.664062 -24.941406 7.503906 -26.734375 9.859375 -28.015625 C 12.210938 -29.304688 14.863281 -29.953125 17.8125 -29.953125 C 20.757812 -29.953125 23.398438 -29.304688 25.734375 -28.015625 C 28.066406 -26.734375 29.894531 -24.941406 31.21875 -22.640625 C 32.539062 -20.347656 33.203125 -17.75 33.203125 -14.84375 C 33.203125 -11.925781 32.539062 -9.316406 31.21875 -7.015625 C 29.894531 -4.722656 28.066406 -2.921875 25.734375 -1.609375 C 23.398438 -0.304688 20.757812 0.34375 17.8125 0.34375 Z M 17.8125 -4.375 C 19.707031 -4.375 21.410156 -4.8125 22.921875 -5.6875 C 24.441406 -6.5625 25.628906 -7.789062 26.484375 -9.375 C 27.347656 -10.96875 27.78125 -12.789062 27.78125 -14.84375 C 27.78125 -16.894531 27.347656 -18.710938 26.484375 -20.296875 C 25.628906 -21.890625 24.441406 -23.113281 22.921875 -23.96875 C 21.410156 -24.820312 19.707031 -25.25 17.8125 -25.25 C 15.90625 -25.25 14.195312 -24.820312 12.6875 -23.96875 C 11.175781 -23.113281 9.976562 -21.890625 9.09375 -20.296875 C 8.21875 -18.710938 7.78125 -16.894531 7.78125 -14.84375 C 7.78125 -12.789062 8.21875 -10.96875 9.09375 -9.375 C 9.976562 -7.789062 11.175781 -6.5625 12.6875 -5.6875 C 14.195312 -4.8125 15.90625 -4.375 17.8125 -4.375 Z M 17.8125 -4.375 "/></g></g></g><g fill="#8b1837" fill-opacity="1"><g transform="translate(85.302322, 56.592147)"><g><path d="M 5.09375 -41.546875 L 10.46875 -41.546875 L 10.46875 0 L 5.09375 0 Z M 5.09375 -41.546875 "/></g></g></g><g fill="#8b1837" fill-opacity="1"><g transform="translate(100.9262, 56.592147)"><g><path d="M 5.09375 -41.546875 L 10.46875 -41.546875 L 10.46875 0 L 5.09375 0 Z M 5.09375 -41.546875 "/></g></g></g><g fill="#8b1837" fill-opacity="1"><g transform="translate(116.550078, 56.592147)"><g><path d="M 31.921875 -14.671875 C 31.921875 -14.265625 31.882812 -13.722656 31.8125 -13.046875 L 7.734375 -13.046875 C 8.066406 -10.429688 9.210938 -8.332031 11.171875 -6.75 C 13.128906 -5.164062 15.566406 -4.375 18.484375 -4.375 C 22.023438 -4.375 24.878906 -5.566406 27.046875 -7.953125 L 30.015625 -4.484375 C 28.671875 -2.910156 27 -1.710938 25 -0.890625 C 23.007812 -0.0664062 20.78125 0.34375 18.3125 0.34375 C 15.175781 0.34375 12.394531 -0.300781 9.96875 -1.59375 C 7.539062 -2.882812 5.664062 -4.6875 4.34375 -7 C 3.019531 -9.3125 2.359375 -11.925781 2.359375 -14.84375 C 2.359375 -17.71875 3 -20.3125 4.28125 -22.625 C 5.570312 -24.9375 7.34375 -26.734375 9.59375 -28.015625 C 11.851562 -29.304688 14.40625 -29.953125 17.25 -29.953125 C 20.082031 -29.953125 22.609375 -29.304688 24.828125 -28.015625 C 27.054688 -26.734375 28.796875 -24.9375 30.046875 -22.625 C 31.296875 -20.3125 31.921875 -17.660156 31.921875 -14.671875 Z M 17.25 -25.421875 C 14.675781 -25.421875 12.519531 -24.632812 10.78125 -23.0625 C 9.039062 -21.5 8.023438 -19.445312 7.734375 -16.90625 L 26.765625 -16.90625 C 26.460938 -19.40625 25.441406 -21.445312 23.703125 -23.03125 C 21.972656 -24.625 19.820312 -25.421875 17.25 -25.421875 Z M 17.25 -25.421875 "/></g></g></g><g fill="#8b1837" fill-opacity="1"><g transform="translate(150.821827, 56.592147)"><g><path d="M 33.484375 -29.6875 L 33.484375 -4.03125 C 33.484375 1.15625 32.195312 4.988281 29.625 7.46875 C 27.050781 9.957031 23.207031 11.203125 18.09375 11.203125 C 15.289062 11.203125 12.617188 10.816406 10.078125 10.046875 C 7.535156 9.285156 5.484375 8.195312 3.921875 6.78125 L 6.5 2.625 C 7.875 3.820312 9.578125 4.765625 11.609375 5.453125 C 13.648438 6.148438 15.753906 6.5 17.921875 6.5 C 21.390625 6.5 23.953125 5.675781 25.609375 4.03125 C 27.273438 2.382812 28.109375 -0.113281 28.109375 -3.46875 L 28.109375 -5.828125 C 26.835938 -4.296875 25.273438 -3.144531 23.421875 -2.375 C 21.578125 -1.613281 19.578125 -1.234375 17.421875 -1.234375 C 14.578125 -1.234375 12.003906 -1.835938 9.703125 -3.046875 C 7.410156 -4.265625 5.613281 -5.960938 4.3125 -8.140625 C 3.007812 -10.328125 2.359375 -12.820312 2.359375 -15.625 C 2.359375 -18.425781 3.007812 -20.914062 4.3125 -23.09375 C 5.613281 -25.28125 7.410156 -26.96875 9.703125 -28.15625 C 12.003906 -29.351562 14.578125 -29.953125 17.421875 -29.953125 C 19.660156 -29.953125 21.738281 -29.539062 23.65625 -28.71875 C 25.582031 -27.90625 27.160156 -26.695312 28.390625 -25.09375 L 28.390625 -29.6875 Z M 18.03125 -5.9375 C 19.96875 -5.9375 21.710938 -6.347656 23.265625 -7.171875 C 24.816406 -7.992188 26.03125 -9.140625 26.90625 -10.609375 C 27.78125 -12.085938 28.21875 -13.757812 28.21875 -15.625 C 28.21875 -18.5 27.265625 -20.820312 25.359375 -22.59375 C 23.460938 -24.363281 21.019531 -25.25 18.03125 -25.25 C 15.007812 -25.25 12.546875 -24.363281 10.640625 -22.59375 C 8.734375 -20.820312 7.78125 -18.5 7.78125 -15.625 C 7.78125 -13.757812 8.21875 -12.085938 9.09375 -10.609375 C 9.976562 -9.140625 11.191406 -7.992188 12.734375 -7.171875 C 14.285156 -6.347656 16.050781 -5.9375 18.03125 -5.9375 Z M 18.03125 -5.9375 "/></g></g></g><g fill="#8b1837" fill-opacity="1"><g transform="translate(189.461534, 56.592147)"><g><path d="M 31.921875 -14.671875 C 31.921875 -14.265625 31.882812 -13.722656 31.8125 -13.046875 L 7.734375 -13.046875 C 8.066406 -10.429688 9.210938 -8.332031 11.171875 -6.75 C 13.128906 -5.164062 15.566406 -4.375 18.484375 -4.375 C 22.023438 -4.375 24.878906 -5.566406 27.046875 -7.953125 L 30.015625 -4.484375 C 28.671875 -2.910156 27 -1.710938 25 -0.890625 C 23.007812 -0.0664062 20.78125 0.34375 18.3125 0.34375 C 15.175781 0.34375 12.394531 -0.300781 9.96875 -1.59375 C 7.539062 -2.882812 5.664062 -4.6875 4.34375 -7 C 3.019531 -9.3125 2.359375 -11.925781 2.359375 -14.84375 C 2.359375 -17.71875 3 -20.3125 4.28125 -22.625 C 5.570312 -24.9375 7.34375 -26.734375 9.59375 -28.015625 C 11.851562 -29.304688 14.40625 -29.953125 17.25 -29.953125 C 20.082031 -29.953125 22.609375 -29.304688 24.828125 -28.015625 C 27.054688 -26.734375 28.796875 -24.9375 30.046875 -22.625 C 31.296875 -20.3125 31.921875 -17.660156 31.921875 -14.671875 Z M 17.25 -25.421875 C 14.675781 -25.421875 12.519531 -24.632812 10.78125 -23.0625 C 9.039062 -21.5 8.023438 -19.445312 7.734375 -16.90625 L 26.765625 -16.90625 C 26.460938 -19.40625 25.441406 -21.445312 23.703125 -23.03125 C 21.972656 -24.625 19.820312 -25.421875 17.25 -25.421875 Z M 17.25 -25.421875 "/></g></g></g><g fill="#000000" fill-opacity="1"><g transform="translate(223.731326, 56.592147)"><g><path d="M 33.046875 -19.828125 L 38.421875 -19.828125 L 38.421875 -4.53125 C 36.472656 -2.925781 34.210938 -1.691406 31.640625 -0.828125 C 29.066406 0.0234375 26.378906 0.453125 23.578125 0.453125 C 19.617188 0.453125 16.050781 -0.414062 12.875 -2.15625 C 9.707031 -3.894531 7.21875 -6.285156 5.40625 -9.328125 C 3.59375 -12.367188 2.6875 -15.789062 2.6875 -19.59375 C 2.6875 -23.40625 3.59375 -26.84375 5.40625 -29.90625 C 7.21875 -32.96875 9.71875 -35.351562 12.90625 -37.0625 C 16.101562 -38.78125 19.695312 -39.640625 23.6875 -39.640625 C 26.820312 -39.640625 29.664062 -39.125 32.21875 -38.09375 C 34.78125 -37.070312 36.957031 -35.570312 38.75 -33.59375 L 35.28125 -30.125 C 32.144531 -33.144531 28.351562 -34.65625 23.90625 -34.65625 C 20.925781 -34.65625 18.25 -34.007812 15.875 -32.71875 C 13.5 -31.4375 11.640625 -29.644531 10.296875 -27.34375 C 8.953125 -25.050781 8.28125 -22.46875 8.28125 -19.59375 C 8.28125 -16.757812 8.953125 -14.191406 10.296875 -11.890625 C 11.640625 -9.597656 13.5 -7.796875 15.875 -6.484375 C 18.25 -5.179688 20.910156 -4.53125 23.859375 -4.53125 C 27.367188 -4.53125 30.429688 -5.375 33.046875 -7.0625 Z M 33.046875 -19.828125 "/></g></g></g><g fill="#000000" fill-opacity="1"><g transform="translate(266.963007, 56.592147)"><g><path d="M 32.765625 -29.6875 L 32.765625 0 L 27.65625 0 L 27.65625 -4.484375 C 26.582031 -2.953125 25.15625 -1.765625 23.375 -0.921875 C 21.601562 -0.078125 19.671875 0.34375 17.578125 0.34375 C 13.617188 0.34375 10.5 -0.75 8.21875 -2.9375 C 5.945312 -5.125 4.8125 -8.34375 4.8125 -12.59375 L 4.8125 -29.6875 L 10.1875 -29.6875 L 10.1875 -13.21875 C 10.1875 -10.34375 10.878906 -8.164062 12.265625 -6.6875 C 13.648438 -5.21875 15.628906 -4.484375 18.203125 -4.484375 C 21.035156 -4.484375 23.273438 -5.335938 24.921875 -7.046875 C 26.566406 -8.765625 27.390625 -11.195312 27.390625 -14.34375 L 27.390625 -29.6875 Z M 32.765625 -29.6875 "/></g></g></g><g fill="#000000" fill-opacity="1"><g transform="translate(304.874721, 56.592147)"><g><path d="M 10.25 -24.703125 C 11.175781 -26.410156 12.554688 -27.710938 14.390625 -28.609375 C 16.222656 -29.503906 18.445312 -29.953125 21.0625 -29.953125 L 21.0625 -24.75 C 20.757812 -24.789062 20.347656 -24.8125 19.828125 -24.8125 C 16.910156 -24.8125 14.617188 -23.941406 12.953125 -22.203125 C 11.296875 -20.460938 10.46875 -17.988281 10.46875 -14.78125 L 10.46875 0 L 5.09375 0 L 5.09375 -29.6875 L 10.25 -29.6875 Z M 10.25 -24.703125 "/></g></g></g><g fill="#000000" fill-opacity="1"><g transform="translate(327.834546, 56.592147)"><g><path d="M 32.765625 -29.6875 L 32.765625 0 L 27.65625 0 L 27.65625 -4.484375 C 26.582031 -2.953125 25.15625 -1.765625 23.375 -0.921875 C 21.601562 -0.078125 19.671875 0.34375 17.578125 0.34375 C 13.617188 0.34375 10.5 -0.75 8.21875 -2.9375 C 5.945312 -5.125 4.8125 -8.34375 4.8125 -12.59375 L 4.8125 -29.6875 L 10.1875 -29.6875 L 10.1875 -13.21875 C 10.1875 -10.34375 10.878906 -8.164062 12.265625 -6.6875 C 13.648438 -5.21875 15.628906 -4.484375 18.203125 -4.484375 C 21.035156 -4.484375 23.273438 -5.335938 24.921875 -7.046875 C 26.566406 -8.765625 27.390625 -11.195312 27.390625 -14.34375 L 27.390625 -29.6875 Z M 32.765625 -29.6875 "/></g></g></g></svg>